<?xml version="1.0" encoding="UTF-8" standalone="no"?><!DOCTYPE svg PUBLIC "-//W3C//DTD SVG 1.1//EN" "http://www.w3.org/Graphics/SVG/1.1/DTD/svg11.dtd"><svg width="100%" height="100%" viewBox="0 0 800 525" version="1.1" xmlns="http://www.w3.org/2000/svg" xmlns:xlink="http://www.w3.org/1999/xlink" xml:space="preserve" xmlns:serif="http://www.serif.com/" style="fill-rule:evenodd;clip-rule:evenodd;stroke-linejoin:round;stroke-miterlimit:2;"><path d="M740.086,0l-680.172,0c-33.091,0 -59.914,26.823 -59.914,59.914l0,404.311c0,33.089 26.823,59.914 59.914,59.914l680.172,0c33.089,0 59.914,-26.823 59.914,-59.914l0,-404.311c0,-33.091 -26.823,-59.914 -59.914,-59.914Z" style="fill:#41479b;fill-rule:nonzero;"/><path d="M799.17,50.011c-4.722,-28.373 -29.37,-50.011 -59.084,-50.011l-15.589,0l-255.531,167.417l0,-167.416l-137.931,0l0,167.417l-255.531,-167.417l-15.589,0c-29.714,0 -54.363,21.636 -59.084,50.011l218.403,143.094l-219.233,0l0,137.931l219.233,0l-218.403,143.091c4.722,28.373 29.37,50.011 59.084,50.011l15.589,0l255.531,-167.417l0,167.417l137.931,0l0,-167.417l255.531,167.417l15.589,0c29.714,0 54.362,-21.636 59.084,-50.011l-218.403,-143.094l219.233,0l0,-137.931l-219.233,0l218.403,-143.092Z" style="fill:#f5f5f5;fill-rule:nonzero;"/><g><path d="M441.38,0l-82.759,0l0,220.689l-358.62,0l0,82.759l358.62,0l0,220.689l82.759,0l0,-220.689l358.62,0l0,-82.759l-358.62,0l0,-220.689Z" style="fill:#ff4b55;fill-rule:nonzero;"/><path d="M38.739,520.275l291.536,-189.241l-50.669,0l-265.194,172.144c6.489,7.573 14.828,13.508 24.327,17.097Z" style="fill:#ff4b55;fill-rule:nonzero;"/><path d="M541.231,331.034l-50.669,0l282.369,183.289c7.902,-5.189 14.495,-12.198 19.198,-20.43l-250.898,-162.859Z" style="fill:#ff4b55;fill-rule:nonzero;"/><path d="M6.327,33.123l246.453,159.98l50.669,0l-279.269,-181.281c-7.498,5.581 -13.634,12.878 -17.853,21.302Z" style="fill:#ff4b55;fill-rule:nonzero;"/><path d="M519.634,193.103l265.68,-172.461c-6.561,-7.548 -14.966,-13.448 -24.53,-16.969l-291.819,189.43l50.669,0Z" style="fill:#ff4b55;fill-rule:nonzero;"/></g></svg>