<?xml version="1.0" encoding="UTF-8" standalone="no"?><!DOCTYPE svg PUBLIC "-//W3C//DTD SVG 1.1//EN" "http://www.w3.org/Graphics/SVG/1.1/DTD/svg11.dtd"><svg width="100%" height="100%" viewBox="0 0 800 578" version="1.1" xmlns="http://www.w3.org/2000/svg" xmlns:xlink="http://www.w3.org/1999/xlink" xml:space="preserve" xmlns:serif="http://www.serif.com/" style="fill-rule:evenodd;clip-rule:evenodd;stroke-linejoin:round;stroke-miterlimit:2;"><path d="M222.222,0l-133.333,0c-48.763,0 -88.889,40.126 -88.889,88.889l0,133.333l222.222,0l0,-222.222Zm488.889,0l-355.556,0l0,222.222l444.444,0l0,-133.333c0,-48.763 -40.126,-88.889 -88.889,-88.889Zm-488.889,577.778l-133.333,0c-48.763,0 -88.889,-40.126 -88.889,-88.889l0,-133.333l222.222,0l0,222.222Zm488.889,0l-355.556,0l0,-222.222l444.444,0l0,133.333c0,48.763 -40.126,88.889 -88.889,88.889Z" style="fill:#ef2b2d;fill-rule:nonzero;"/><path d="M322.222,0l-65.422,0l-0.556,255.556l-256.244,0l0,66.667l256.111,0l-0.556,255.556l66.667,0l0,-255.556l477.778,0l0,-66.667l-477.778,0l0,-255.556Z" style="fill:#002868;fill-rule:nonzero;"/><path d="M322.222,577.778l33.333,0l0,-222.222l444.444,0l0,-33.333l-477.778,0l0,255.556Zm33.333,-577.778l-33.333,0l0,255.556l477.778,0l0,-33.333l-444.444,0l0,-222.222Zm-100,0l-33.333,0l0,222.222l-222.222,0l0,33.333l255.556,0l0,-255.556Zm-255.556,322.222l0,33.333l222.222,0l0,222.222l33.333,0l0,-255.556l-255.556,0Z" style="fill:#eee;fill-rule:nonzero;"/></svg>