<?xml version="1.0" encoding="UTF-8" standalone="no"?><!DOCTYPE svg PUBLIC "-//W3C//DTD SVG 1.1//EN" "http://www.w3.org/Graphics/SVG/1.1/DTD/svg11.dtd"><svg width="100%" height="100%" viewBox="0 0 850 850" version="1.1" xmlns="http://www.w3.org/2000/svg" xmlns:xlink="http://www.w3.org/1999/xlink" xml:space="preserve" xmlns:serif="http://www.serif.com/" style="fill-rule:evenodd;clip-rule:evenodd;stroke-linejoin:round;stroke-miterlimit:2;"><g><path d="M822.934,200.43c-3.606,-18.166 -11.661,-34.789 -22.909,-48.522c-2.372,-2.992 -4.85,-5.672 -7.536,-8.352c-19.93,-20.028 -47.902,-32.522 -78.459,-32.522l-578.059,0c-30.558,0 -58.43,12.494 -78.453,32.522c-2.68,2.68 -5.158,5.359 -7.536,8.352c-11.255,13.731 -19.309,30.356 -22.816,48.522c-1.441,7.011 -2.166,14.256 -2.166,21.581l0,405.989c0,15.575 3.303,30.547 9.194,44.067c5.464,12.906 13.52,24.584 23.322,34.377c2.484,2.478 4.952,4.756 7.644,7.022c19.197,15.898 43.977,25.5 70.811,25.5l578.059,0c26.844,0 51.731,-9.602 70.817,-25.6c2.684,-2.166 5.164,-4.444 7.642,-6.922c9.797,-9.792 17.852,-21.47 23.428,-34.377l0,-0.1c5.889,-13.52 9.081,-28.392 9.081,-43.966l0,-405.991c0.002,-7.325 -0.712,-14.57 -2.064,-21.581Zm-725.264,-16.725c9.914,-9.903 23.228,-15.898 38.3,-15.898l578.059,0c15.072,0 28.503,5.995 38.3,15.898c1.753,1.764 3.405,3.73 4.862,5.683l-302.98,264.055c-8.356,7.323 -18.678,10.941 -29.213,10.941c-10.428,0 -20.744,-3.617 -29.211,-10.941l-302.864,-264.167c1.341,-1.953 2.992,-3.806 4.745,-5.57Zm-15.898,444.295l0,-379.977l219.256,191.273l-219.145,191.07c-0.111,-0.725 -0.111,-1.541 -0.111,-2.367Zm632.258,54.183l-578.059,0c-9.814,0 -18.997,-2.58 -26.834,-7.113l231.216,-201.498l21.586,18.778c18.064,15.697 40.669,23.647 63.062,23.647c22.509,0 45.113,-7.95 63.175,-23.647l21.575,-18.778l231.125,201.498c-7.848,4.533 -17.031,7.113 -26.845,7.113Zm54.198,-54.183c0,0.827 0,1.642 -0.106,2.367l-219.144,-190.959l219.25,-191.283l0,379.875Z" style="fill:#d0d0f0;fill-rule:nonzero;"/></g></svg>