<?xml version="1.0" encoding="UTF-8" standalone="no"?><!DOCTYPE svg PUBLIC "-//W3C//DTD SVG 1.1//EN" "http://www.w3.org/Graphics/SVG/1.1/DTD/svg11.dtd"><svg width="100%" height="100%" viewBox="0 0 800 800" version="1.1" xmlns="http://www.w3.org/2000/svg" xmlns:xlink="http://www.w3.org/1999/xlink" xml:space="preserve" xmlns:serif="http://www.serif.com/" style="fill-rule:evenodd;clip-rule:evenodd;stroke-linejoin:round;stroke-miterlimit:2;"><g id="Page-1"><g id="Dribbble-Light-Preview"><g id="icons"><path id="linkedin---161-" serif:id="linkedin-[#161]" d="M800,800l-160,0l0,-279.96c0,-76.8 -33.88,-119.64 -94.64,-119.64c-66.12,0 -105.36,44.64 -105.36,119.64l0,279.96l-160,0l0,-520l160,0l0,58.48c0,0 50.2,-88.08 163.32,-88.08c113.16,0 196.68,69.04 196.68,211.92l0,337.68Zm-702.32,-603.16c-53.96,0 -97.68,-44.08 -97.68,-98.44c0,-54.32 43.72,-98.4 97.68,-98.4c53.92,0 97.64,44.08 97.64,98.4c0.04,54.36 -43.72,98.44 -97.64,98.44Zm-97.68,603.16l200,0l0,-520l-200,0l0,520Z" style="fill:#d0d0f0;"/></g></g></g></svg>