<?xml version="1.0" encoding="UTF-8" standalone="no"?><!DOCTYPE svg PUBLIC "-//W3C//DTD SVG 1.1//EN" "http://www.w3.org/Graphics/SVG/1.1/DTD/svg11.dtd"><svg width="100%" height="100%" viewBox="0 0 667 534" version="1.1" xmlns="http://www.w3.org/2000/svg" xmlns:xlink="http://www.w3.org/1999/xlink" xml:space="preserve" xmlns:serif="http://www.serif.com/" style="fill-rule:evenodd;clip-rule:evenodd;stroke-linejoin:round;stroke-miterlimit:2;"><g id="Page-1"><g id="icon"><path id="Combined-Shape" d="M666.667,-0l0,533.333l-666.667,0l-0,-533.333l666.667,-0Zm-100,333.333l-200,0l0,50l200,0l0,-50Zm-370.833,-90l-25,0c-48.325,0 -87.5,40 -87.5,90l200,0c0,-50 -39.333,-90 -87.5,-90Zm370.833,-10l-200,0l0,50l200,0l0,-50Zm-383.333,-110.48c-24.162,0 -43.75,19.588 -43.75,43.75c0,24.162 19.588,43.75 43.75,43.75c24.162,0 43.75,-19.588 43.75,-43.75c0,-24.162 -19.588,-43.75 -43.75,-43.75Zm383.333,10.48l-200,0l0,50l200,0l0,-50Z" style="fill:#d0d0f0;"/></g></g></svg>