<?xml version="1.0" encoding="UTF-8" standalone="no"?><!DOCTYPE svg PUBLIC "-//W3C//DTD SVG 1.1//EN" "http://www.w3.org/Graphics/SVG/1.1/DTD/svg11.dtd"><svg width="100%" height="100%" viewBox="0 0 600 667" version="1.1" xmlns="http://www.w3.org/2000/svg" xmlns:xlink="http://www.w3.org/1999/xlink" xml:space="preserve" xmlns:serif="http://www.serif.com/" style="fill-rule:evenodd;clip-rule:evenodd;stroke-linejoin:round;stroke-miterlimit:2;"><path d="M236.363,332.097l309.09,-111.068l0,184.661c-18.367,-10.563 -40.207,-16.69 -63.637,-16.69c-65.27,0 -118.18,47.533 -118.18,106.167c0,58.633 52.91,106.167 118.18,106.167c65.27,0 118.183,-47.533 118.183,-106.167c0,0 0,0.003 0,0l0,-312.088c0,-37.333 0,-68.642 -2.923,-93.588c-0.413,-3.526 -0.903,-7.031 -1.443,-10.301c-2.817,-17.043 -7.793,-32.941 -17.4,-46.217c-4.807,-6.638 -10.767,-12.621 -18.193,-17.763c-1.393,-0.964 -2.84,-1.899 -4.337,-2.803l-0.3,-0.18c-25.717,-15.375 -54.627,-14.276 -84.41,-7.458c-28.803,6.594 -64.513,20.021 -108.3,36.486l-76.15,28.631c-20.523,7.717 -37.913,14.254 -51.563,21.026c-14.521,7.205 -27.03,15.702 -36.411,28.365c-9.381,12.663 -13.277,26.309 -15.069,41.125c-1.684,13.925 -1.683,30.859 -1.682,50.847l0,259.776c-18.369,-10.563 -40.207,-16.69 -63.637,-16.69c-65.27,0 -118.182,47.533 -118.182,106.167c0,58.633 52.912,106.167 118.182,106.167c65.27,0 118.182,-47.533 118.182,-106.167c0,0 0,0.003 0,0l0,-228.403Z" style="fill:#d0d0f0;fill-rule:nonzero;"/></svg>