<?xml version="1.0" encoding="UTF-8" standalone="no"?><!DOCTYPE svg PUBLIC "-//W3C//DTD SVG 1.1//EN" "http://www.w3.org/Graphics/SVG/1.1/DTD/svg11.dtd"><svg width="100%" height="100%" viewBox="0 0 800 800" version="1.1" xmlns="http://www.w3.org/2000/svg" xmlns:xlink="http://www.w3.org/1999/xlink" xml:space="preserve" xmlns:serif="http://www.serif.com/" style="fill-rule:evenodd;clip-rule:evenodd;stroke-linejoin:round;stroke-miterlimit:2;"><g><path d="M791.286,317.219l-0.016,-0.12c-0.977,-4.628 -2.269,-9.136 -3.395,-13.703c-27.45,-14.903 -64.062,-27.689 -106.252,-36.762c-47.716,-10.306 -102.553,-16.031 -159.689,-16.016c-67.113,-0.016 -137.411,7.888 -203.306,25.073c-4.177,1.113 -8.278,2.359 -12.409,3.547c5.362,34.344 12.366,67.73 20.778,99.984c13.822,-4.852 28.005,-8.938 42.592,-12.094c19.938,-4.297 39.784,-6.264 59.331,-6.264c64.213,0.044 124.789,20.914 179.386,48.453c54.597,27.584 103.575,62.109 144.411,90.986c10.141,7.181 19.592,13.837 28.65,20.117c12.006,-38.013 18.617,-78.397 18.633,-120.42c0,-28.456 -3.005,-56.13 -8.714,-82.781Z" style="fill:#d0d0f0;fill-rule:nonzero;"/><path d="M306.88,231.07l0.062,-0.016c70.297,-18.345 144.259,-26.578 214.994,-26.592c60.2,0 118.058,5.978 169.427,17.053c27.689,5.994 53.395,13.475 76.741,22.384c-45.612,-107.57 -136.973,-191.164 -249.684,-225.975c-6.52,4.928 -13.25,10.547 -20.297,17.053c-16.136,14.783 -33.669,33.083 -54.011,52.056c-36.298,33.909 -82.392,69.967 -146.784,90.986c0.044,18.569 0.525,36.93 2.523,55.047c2.358,-0.645 4.656,-1.366 7.03,-1.997Z" style="fill:#d0d0f0;fill-rule:nonzero;"/><path d="M462.65,5.034c-20.403,-3.231 -41.331,-5.034 -62.65,-5.034c-26.728,0 -52.705,2.795 -77.916,7.812c-3.62,13.281 -7.842,29.719 -11.794,48.047c-4.897,22.641 -9.209,47.956 -11.372,72.716c32.812,-12.8 59.689,-30.048 83.487,-49.023c30.289,-24.142 55.198,-51.005 80.244,-74.517Z" style="fill:#d0d0f0;fill-rule:nonzero;"/><path d="M251.923,141.917c1.608,-33.278 7.002,-66.738 13.25,-95.778c1.863,-8.608 3.772,-16.827 5.666,-24.534c-57.723,19.592 -109.467,52.03 -152.089,94.095c29.072,18.316 63.356,28.591 101.458,28.638c10.306,0 20.913,-0.887 31.716,-2.42Z" style="fill:#d0d0f0;fill-rule:nonzero;"/><path d="M93.991,329.808c49.578,-35.441 105.439,-63.686 161.042,-83.008c-0.345,-2.841 -0.75,-5.603 -1.05,-8.473l0,0.047c-1.878,-17.098 -2.42,-33.669 -2.63,-49.941c-10.502,1.231 -20.914,2.072 -31.145,2.072c-49.309,0.031 -94.983,-14.288 -132.828,-39.994c-54.717,68.405 -87.364,154.942 -87.38,249.489c0,5.439 0.166,10.788 0.359,16.137c26.308,-32.169 58.4,-61.091 93.631,-86.33Z" style="fill:#d0d0f0;fill-rule:nonzero;"/><path d="M284.645,399.444c-9.225,-34.148 -17.037,-69.47 -22.972,-105.92c-48.678,17.775 -97.731,42.955 -140.822,73.814c-46.828,33.475 -86.416,73.498 -111.898,116.738c15.309,71.273 49.489,135.545 97.206,187.273c0.284,-0.842 0.541,-1.608 0.811,-2.45c5.784,-17.772 12.366,-38.475 20.598,-60.622c16.466,-44.275 39.498,-94.502 76.908,-139.498c21.439,-25.764 48.033,-49.517 80.169,-69.334Z" style="fill:#d0d0f0;fill-rule:nonzero;"/><path d="M397.4,655.784c-40.144,-60.728 -73.888,-131.834 -99.262,-210.381c-38.011,25.917 -65.806,58.623 -87.109,93.659c-25.586,42.097 -41.572,87.184 -54.117,125.527c-5.019,15.25 -9.434,29.161 -13.897,41.856c69.636,58.398 158.984,93.539 256.986,93.555c38.266,0 75.225,-5.467 110.262,-15.505c-41.363,-34.525 -79.328,-78.036 -112.862,-128.711Z" style="fill:#d0d0f0;fill-rule:nonzero;"/><path d="M636.914,478.156c-64.077,-39.169 -136.103,-71.289 -207.992,-71.139c-16.469,0 -32.994,1.637 -49.595,5.228c-13.792,2.975 -26.833,7.077 -39.528,11.675c24.444,77.78 57.302,147.745 96.094,206.4c37.334,56.491 80.062,102.48 125.45,135.517c79.027,-34.886 144.741,-94.442 186.944,-169.125l0.03,-0.047c5.859,-10.322 11.087,-21.034 16.016,-31.88c-12.05,-8.203 -24.789,-17.262 -38.281,-26.803c-27.131,-19.203 -57.106,-40.311 -89.136,-59.827Z" style="fill:#d0d0f0;fill-rule:nonzero;"/><path d="M92.097,743.856l1.803,1.608l-1.713,-1.533c-0.031,-0.031 -0.059,-0.045 -0.091,-0.075Z" style="fill:#d0d0f0;fill-rule:nonzero;"/></g></svg>