<?xml version="1.0" encoding="UTF-8" standalone="no"?><!DOCTYPE svg PUBLIC "-//W3C//DTD SVG 1.1//EN" "http://www.w3.org/Graphics/SVG/1.1/DTD/svg11.dtd"><svg width="100%" height="100%" viewBox="0 0 646 544" version="1.1" xmlns="http://www.w3.org/2000/svg" xmlns:xlink="http://www.w3.org/1999/xlink" xml:space="preserve" xmlns:serif="http://www.serif.com/" style="fill-rule:evenodd;clip-rule:evenodd;stroke-linejoin:round;stroke-miterlimit:2;"><g id="Graduation"><path d="M618.133,472.782l0,-254.579l-41.016,20.508l0,234.044l-27.35,70.325l95.703,0l-27.337,-70.298Z" style="fill:#d0d0f0;fill-rule:nonzero;"/><path d="M280.649,350.244l-168.382,-84.188l0,84.024c0,56.63 91.818,102.539 205.078,102.539c113.264,0 205.078,-45.909 205.078,-102.539l0,-84.025l-168.395,84.194c-28.822,11.417 -44.554,11.414 -73.38,-0.005l0.001,-0Z" style="fill:#d0d0f0;fill-rule:nonzero;"/><path d="M335.69,313.566l291.439,-145.719c10.09,-5.045 10.09,-13.298 0,-18.344l-291.439,-145.719c-10.087,-5.045 -26.596,-5.045 -36.686,0l-291.439,145.719c-10.087,5.045 -10.087,13.298 0,18.344l291.439,145.719c10.091,5.045 26.6,5.045 36.686,0Z" style="fill:#d0d0f0;fill-rule:nonzero;"/></g></svg>