<?xml version="1.0" encoding="UTF-8" standalone="no"?><!DOCTYPE svg PUBLIC "-//W3C//DTD SVG 1.1//EN" "http://www.w3.org/Graphics/SVG/1.1/DTD/svg11.dtd"><svg width="100%" height="100%" viewBox="0 0 1200 1334" version="1.1" xmlns="http://www.w3.org/2000/svg" xmlns:xlink="http://www.w3.org/1999/xlink" xml:space="preserve" xmlns:serif="http://www.serif.com/" style="fill-rule:evenodd;clip-rule:evenodd;stroke-linejoin:round;stroke-miterlimit:2;"><path d="M540.624,643.907l328.437,1.345l-63.158,173.525c-13.647,-16.208 -32.074,-29.435 -54.091,-37.449c-61.334,-22.324 -127.31,4.246 -147.364,59.344c-20.054,55.097 13.408,117.861 74.742,140.184c61.334,22.324 127.313,-4.245 147.367,-59.343c0,0 -0.001,0.003 0,0l106.74,-293.267c12.769,-35.082 23.477,-64.502 29.262,-88.944c0.818,-3.455 1.556,-6.916 2.167,-10.173c3.182,-16.979 3.943,-33.62 -0.544,-49.381c-2.247,-7.882 -5.801,-15.542 -11.021,-22.914c-0.979,-1.382 -2.019,-2.756 -3.117,-4.117l-0.22,-0.272c-18.908,-23.244 -46.45,-32.099 -76.769,-35.878c-29.321,-3.655 -67.47,-3.251 -114.248,-2.755l-81.35,0.86c-21.925,0.232 -40.502,0.427 -55.645,2.122c-16.11,1.804 -30.77,5.51 -43.917,14.201c-13.146,8.691 -21.475,20.181 -28.226,33.491c-6.345,12.509 -12.136,28.422 -18.971,47.205l-88.849,244.11c-13.648,-16.209 -32.074,-29.435 -54.091,-37.449c-61.334,-22.324 -127.312,4.246 -147.366,59.344c-20.054,55.097 13.41,117.861 74.744,140.185c61.334,22.324 127.312,-4.246 147.366,-59.344c0,0 -0.001,0.003 0,0l78.119,-214.63Z" style="fill:#d0d0f0;fill-opacity:0.67;fill-rule:nonzero;"/></svg>