<?xml version="1.0" encoding="UTF-8" standalone="no"?><!DOCTYPE svg PUBLIC "-//W3C//DTD SVG 1.1//EN" "http://www.w3.org/Graphics/SVG/1.1/DTD/svg11.dtd"><svg width="100%" height="100%" viewBox="0 0 1200 1334" version="1.1" xmlns="http://www.w3.org/2000/svg" xmlns:xlink="http://www.w3.org/1999/xlink" xml:space="preserve" xmlns:serif="http://www.serif.com/" style="fill-rule:evenodd;clip-rule:evenodd;stroke-linejoin:round;stroke-miterlimit:2;"><path d="M539.777,687.436l252.462,-210.085l63.158,173.525c-20.872,-3.644 -43.491,-1.932 -65.508,6.082c-61.334,22.324 -94.796,85.086 -74.742,140.184c20.054,55.097 86.03,81.668 147.364,59.344c61.334,-22.324 94.798,-85.087 74.744,-140.185c0,0 0.001,0.003 0,0l-106.74,-293.267c-12.769,-35.082 -23.477,-64.502 -34.756,-86.944c-1.594,-3.172 -3.253,-6.298 -4.879,-9.186c-8.476,-15.052 -18.59,-28.289 -32.158,-37.479c-6.787,-4.594 -14.434,-8.177 -23.171,-10.469c-1.639,-0.429 -3.318,-0.813 -5.034,-1.151l-0.343,-0.067c-29.425,-5.652 -56.215,5.268 -81.87,21.862c-24.811,16.048 -53.775,40.878 -89.29,71.326l-61.765,52.949c-16.646,14.271 -30.751,26.361 -41.262,37.394c-11.181,11.737 -20.029,24 -24.514,39.108c-4.484,15.108 -3.478,29.263 -0.095,43.799c3.18,13.661 8.973,29.574 15.81,48.356l88.849,244.11c-20.874,-3.643 -43.491,-1.932 -65.508,6.082c-61.334,22.324 -94.798,85.087 -74.744,140.185c20.054,55.097 86.032,81.667 147.366,59.344c61.334,-22.324 94.798,-85.087 74.744,-140.185c0,0 0.001,0.003 0,0l-78.119,-214.63Z" style="fill:#d0d0f0;fill-opacity:0.67;fill-rule:nonzero;"/></svg>