<?xml version="1.0" encoding="UTF-8" standalone="no"?><!DOCTYPE svg PUBLIC "-//W3C//DTD SVG 1.1//EN" "http://www.w3.org/Graphics/SVG/1.1/DTD/svg11.dtd"><svg width="100%" height="100%" viewBox="0 0 1200 1200" version="1.1" xmlns="http://www.w3.org/2000/svg" xmlns:xlink="http://www.w3.org/1999/xlink" xml:space="preserve" xmlns:serif="http://www.serif.com/" style="fill-rule:evenodd;clip-rule:evenodd;stroke-linejoin:round;stroke-miterlimit:2;"><g><path d="M893.464,537.914l-0.012,-0.09c-0.733,-3.471 -1.702,-6.852 -2.546,-10.277c-20.588,-11.177 -48.047,-20.767 -79.689,-27.572c-35.787,-7.729 -76.915,-12.023 -119.767,-12.012c-50.335,-0.012 -103.058,5.916 -152.479,18.805c-3.133,0.835 -6.209,1.769 -9.307,2.66c4.021,25.758 9.274,50.798 15.583,74.988c10.366,-3.639 21.004,-6.703 31.944,-9.071c14.954,-3.223 29.838,-4.698 44.498,-4.698c48.16,0.033 93.592,15.685 134.539,36.34c40.948,20.688 77.681,46.582 108.308,68.24c7.606,5.386 14.694,10.378 21.487,15.088c9.005,-28.51 13.963,-58.798 13.975,-90.315c0,-21.342 -2.254,-42.098 -6.535,-62.086Z" style="fill:#d0d0f0;fill-opacity:0.67;fill-rule:nonzero;"/><path d="M530.16,473.303l0.047,-0.012c52.723,-13.759 108.194,-19.934 161.245,-19.944c45.15,0 88.543,4.484 127.07,12.79c20.767,4.495 40.046,10.106 57.556,16.788c-34.209,-80.678 -102.73,-143.373 -187.263,-169.481c-4.89,3.696 -9.938,7.91 -15.223,12.79c-12.102,11.087 -25.252,24.812 -40.508,39.042c-27.223,25.432 -61.794,52.475 -110.088,68.24c0.033,13.927 0.394,27.697 1.892,41.285c1.769,-0.484 3.492,-1.025 5.273,-1.498l-0.001,0.001Z" style="fill:#d0d0f0;fill-opacity:0.67;fill-rule:nonzero;"/><path d="M646.987,303.776c-15.302,-2.423 -30.998,-3.776 -46.987,-3.776c-20.046,0 -39.529,2.096 -58.437,5.859c-2.715,9.961 -5.881,22.289 -8.845,36.035c-3.673,16.981 -6.907,35.967 -8.529,54.537c24.609,-9.6 44.767,-22.536 62.615,-36.767c22.717,-18.106 41.398,-38.254 60.183,-55.888l0.001,-0.001Z" style="fill:#d0d0f0;fill-opacity:0.67;fill-rule:nonzero;"/><path d="M488.942,406.438c1.206,-24.959 5.252,-50.054 9.938,-71.834c1.397,-6.456 2.829,-12.62 4.25,-18.4c-43.292,14.694 -82.1,39.022 -114.067,70.571c21.804,13.737 47.517,21.443 76.094,21.479c7.73,0 15.685,-0.665 23.787,-1.815l-0.001,-0.001Z" style="fill:#d0d0f0;fill-opacity:0.67;fill-rule:nonzero;"/><path d="M370.493,547.356c37.184,-26.581 79.079,-47.764 120.781,-62.256c-0.259,-2.131 -0.562,-4.202 -0.787,-6.355l0,0.035c-1.409,-12.824 -1.815,-25.252 -1.973,-37.456c-7.876,0.923 -15.685,1.554 -23.359,1.554c-36.982,0.023 -71.237,-10.716 -99.621,-29.995c-41.038,51.304 -65.523,116.206 -65.535,187.117c0,4.079 0.125,8.091 0.269,12.103c19.731,-24.127 43.8,-45.818 70.223,-64.747l0.001,0.001Z" style="fill:#d0d0f0;fill-opacity:0.67;fill-rule:nonzero;"/><path d="M513.484,599.583c-6.919,-25.611 -12.778,-52.102 -17.229,-79.44c-36.509,13.331 -73.298,32.216 -105.616,55.361c-35.121,25.106 -64.812,55.123 -83.924,87.553c11.482,53.455 37.117,101.659 72.905,140.455c0.213,-0.631 0.406,-1.206 0.608,-1.837c4.338,-13.329 9.274,-28.856 15.448,-45.466c12.35,-33.206 29.624,-70.876 57.681,-104.624c16.079,-19.323 36.025,-37.138 60.127,-52l0,-0.001Z" style="fill:#d0d0f0;fill-opacity:0.67;fill-rule:nonzero;"/><path d="M598.05,791.838c-30.108,-45.546 -55.416,-98.875 -74.447,-157.786c-28.508,19.438 -49.355,43.967 -65.332,70.244c-19.19,31.573 -31.179,65.388 -40.588,94.145c-3.764,11.438 -7.076,21.871 -10.423,31.392c52.227,43.798 119.238,70.154 192.739,70.166c28.699,0 56.419,-4.1 82.697,-11.629c-31.022,-25.894 -59.496,-58.527 -84.647,-96.533l-0.001,0Z" style="fill:#d0d0f0;fill-opacity:0.67;fill-rule:nonzero;"/><path d="M777.685,658.617c-48.058,-29.377 -102.077,-53.467 -155.994,-53.354c-12.352,0 -24.745,1.228 -37.196,3.921c-10.344,2.231 -20.125,5.308 -29.646,8.756c18.333,58.335 42.976,110.809 72.07,154.8c28,42.368 60.047,76.86 94.087,101.638c59.27,-26.164 108.556,-70.832 140.208,-126.844l0.022,-0.035c4.394,-7.741 8.315,-15.775 12.012,-23.91c-9.038,-6.152 -18.592,-12.947 -28.711,-20.102c-20.348,-14.402 -42.83,-30.233 -66.852,-44.87l-0.001,0.001Z" style="fill:#d0d0f0;fill-opacity:0.67;fill-rule:nonzero;"/><path d="M369.073,857.892l1.352,1.206l-1.285,-1.15c-0.023,-0.023 -0.044,-0.034 -0.068,-0.056l0.001,0Z" style="fill:#d0d0f0;fill-opacity:0.67;fill-rule:nonzero;"/></g></svg>