<?xml version="1.0" encoding="UTF-8" standalone="no"?><!DOCTYPE svg PUBLIC "-//W3C//DTD SVG 1.1//EN" "http://www.w3.org/Graphics/SVG/1.1/DTD/svg11.dtd"><svg width="100%" height="100%" viewBox="0 0 1200 1011" version="1.1" xmlns="http://www.w3.org/2000/svg" xmlns:xlink="http://www.w3.org/1999/xlink" xml:space="preserve" xmlns:serif="http://www.serif.com/" style="fill-rule:evenodd;clip-rule:evenodd;stroke-linejoin:round;stroke-miterlimit:2;"><g id="Graduation"><path d="M831.385,780.866l44.207,-250.711l-43.954,13.074l-40.641,230.488l-39.146,64.507l94.249,16.618l-14.715,-73.977l0.001,0.001Z" style="fill:#d0d0f0;fill-opacity:0.67;fill-rule:nonzero;"/><path d="M520.307,601.587l-151.205,-112.148l-14.591,82.748c-9.834,55.77 72.617,116.925 184.156,136.592c111.544,19.668 209.934,-9.6 219.768,-65.369l14.59,-82.749l-180.456,53.674c-30.367,6.238 -45.859,3.504 -72.264,-12.747l0.001,-0Z" style="fill:#d0d0f0;fill-opacity:0.67;fill-rule:nonzero;"/><path d="M580.88,575.023l312.315,-92.897c10.813,-3.216 12.246,-11.343 3.186,-18.065l-261.708,-194.113c-9.058,-6.72 -25.316,-9.587 -36.129,-6.37l-312.315,92.897c-10.81,3.217 -12.243,11.345 -3.186,18.065l261.708,194.113c9.062,6.721 25.32,9.587 36.129,6.37Z" style="fill:#d0d0f0;fill-opacity:0.67;fill-rule:nonzero;"/></g></svg>