<?xml version="1.0" encoding="UTF-8" standalone="no"?><!DOCTYPE svg PUBLIC "-//W3C//DTD SVG 1.1//EN" "http://www.w3.org/Graphics/SVG/1.1/DTD/svg11.dtd"><svg width="100%" height="100%" viewBox="0 0 1200 1011" version="1.1" xmlns="http://www.w3.org/2000/svg" xmlns:xlink="http://www.w3.org/1999/xlink" xml:space="preserve" xmlns:serif="http://www.serif.com/" style="fill-rule:evenodd;clip-rule:evenodd;stroke-linejoin:round;stroke-miterlimit:2;"><g id="Graduation"><path d="M941.637,598.567l-87.071,-239.226l-31.528,33.3l80.048,219.929l-1.648,75.438l89.931,-32.732l-49.732,-56.709Z" style="fill:#d0d0f0;fill-opacity:0.67;fill-rule:nonzero;"/><path d="M582.595,598.845l-187.021,-21.521l28.738,78.957c19.369,53.215 121.351,64.952 227.781,26.214c106.433,-38.739 177.008,-113.281 157.64,-166.496l-28.738,-78.958l-129.443,136.711c-23.179,20.586 -37.963,25.964 -68.956,25.093l0.001,-0Z" style="fill:#d0d0f0;fill-opacity:0.67;fill-rule:nonzero;"/><path d="M621.772,545.554l224.024,-236.609c7.756,-8.192 4.933,-15.947 -6.274,-17.238l-323.702,-37.253c-11.204,-1.291 -26.718,4.356 -34.474,12.547l-224.024,236.609c-7.753,8.191 -4.93,15.946 6.274,17.238l323.702,37.253c11.208,1.289 26.721,-4.357 34.474,-12.547Z" style="fill:#d0d0f0;fill-opacity:0.67;fill-rule:nonzero;"/></g></svg>